<?xml version="1.0" encoding="UTF-8"?>
<svg width="179px" height="28px" viewBox="0 0 179 28" version="1.1" xmlns="http://www.w3.org/2000/svg" xmlns:xlink="http://www.w3.org/1999/xlink">
    <title>Logos/Vortexa/light</title>
    <g id="Logos/Vortexa/light" stroke="none" stroke-width="1" fill="none" fill-rule="evenodd">
        <g id="Logo" fill-rule="nonzero">
            <path d="M74.7186046,8 C76.7586046,8 78.3452713,9.60588235 78.3452713,11.6705882 L78.3452713,11.6705882 L78.3452713,16.0294118 C78.3452713,18.0941176 76.6830491,19.7 74.7186046,19.7 L74.7186046,19.7 L66.1052713,19.7 C64.0652713,19.7 62.4786046,18.0176471 62.4786046,16.0294118 L62.4786046,16.0294118 L62.4786046,11.6705882 C62.4786046,9.60588235 64.1408269,8 66.1052713,8 L66.1052713,8 Z M94.0608269,8 C96.1008269,8 97.7630491,9.68235294 97.6874935,11.7470588 C97.611938,13.7352941 95.9497158,15.2647059 93.9852713,15.2647059 L93.9852713,15.2647059 L93.4563824,15.2647059 L97.8386046,19.0117647 C98.0652713,19.1647059 97.9141602,19.6235294 97.611938,19.6235294 L97.611938,19.6235294 L95.3452713,19.6235294 C95.2697158,19.6235294 95.1941602,19.5470588 95.0430491,19.6235294 L95.0430491,19.6235294 L90.131938,15.3411765 L85.0697158,15.3411765 L85.0697158,19.3176471 C85.0697158,19.5470588 84.9186046,19.7 84.691938,19.7 L84.691938,19.7 L83.1052713,19.7 C82.8786046,19.7 82.7274935,19.5470588 82.7274935,19.3176471 L82.7274935,19.3176471 L82.7274935,8.38235294 C82.7274935,8.15294118 82.8786046,8 83.1052713,8 L83.1052713,8 Z M45.3274935,8 C45.5541602,8 45.7808269,8.07647059 45.931938,8.30588235 L45.931938,8.30588235 L51.2963824,16.3352941 L56.6608269,8.30588235 C56.811938,8.15294118 57.0386046,8 57.2652713,8 L57.2652713,8 L59.1541602,8 C59.4563824,8 59.6074935,8.30588235 59.4563824,8.53529412 L59.4563824,8.53529412 L52.5052713,19.3176471 C52.3541602,19.4705882 52.1274935,19.6235294 51.9008269,19.6235294 L51.9008269,19.6235294 L50.8430491,19.6235294 C50.6163824,19.6235294 50.3897158,19.5470588 50.2386046,19.3176471 L50.2386046,19.3176471 L43.0608269,8.53529412 C42.9097158,8.30588235 43.0608269,8 43.2874935,8 L43.2874935,8 Z M137.807494,8 C138.03416,8 138.260827,8.22941176 138.260827,8.45882353 L138.260827,8.45882353 L138.260827,9.83529412 C138.260827,10.1411765 138.03416,10.2941176 137.731938,10.4470588 L137.731938,10.4470588 L124.585271,10.4470588 L124.585271,12.6647059 L135.616382,12.6647059 C135.843049,12.6647059 136.069716,12.8941176 136.069716,13.1235294 L136.069716,13.1235294 L136.069716,14.5 C136.069716,14.7294118 135.843049,14.9588235 135.616382,14.9588235 L135.616382,14.9588235 L124.660827,14.9588235 L124.660827,17.3294118 L137.807494,17.3294118 C138.03416,17.3294118 138.260827,17.5588235 138.260827,17.7882353 L138.260827,17.7882353 L138.260827,19.1647059 C138.260827,19.3941176 138.03416,19.6235294 137.807494,19.6235294 L137.807494,19.6235294 L122.771938,19.6235294 C122.545271,19.6235294 122.318605,19.3941176 122.318605,19.1647059 L122.318605,19.1647059 L122.318605,8.45882353 C122.318605,8.22941176 122.545271,8 122.771938,8 L122.771938,8 Z M145.967494,8.00070806 C146.093419,8.00424837 146.219345,8.0254902 146.345271,8.15294118 L146.345271,8.15294118 L150.727494,12.2058824 L155.109716,8.15294118 C155.185271,8.07647059 155.411938,8 155.563049,8 L155.563049,8 L157.829716,8 C158.131938,8 158.283049,8.38235294 158.056382,8.61176471 L158.056382,8.61176471 L152.389716,13.8117647 L158.056382,19.0117647 C158.283049,19.2411765 158.131938,19.6235294 157.829716,19.6235294 L157.829716,19.6235294 L155.563049,19.6235294 C155.411938,19.6235294 155.260827,19.6235294 155.109716,19.4705882 L155.109716,19.4705882 L150.727494,15.4176471 L146.345271,19.4705882 C146.269716,19.5470588 146.043049,19.6235294 145.891938,19.6235294 L145.891938,19.6235294 L143.625271,19.6235294 C143.323049,19.6235294 143.171938,19.2411765 143.398605,19.0117647 L143.398605,19.0117647 L149.065271,13.8117647 L143.398605,8.61176471 C143.171938,8.38235294 143.323049,8 143.625271,8 L143.625271,8 Z M170.523049,8 C170.749716,8 170.976382,8.07647059 171.127494,8.30588235 L171.127494,8.30588235 L178.305271,19.0882353 C178.456382,19.3176471 178.305271,19.6235294 178.078605,19.6235294 L178.078605,19.6235294 L176.038605,19.6235294 C175.811938,19.6235294 175.585271,19.5470588 175.43416,19.3176471 L175.43416,19.3176471 L170.069716,11.2882353 L164.705271,19.3176471 C164.55416,19.4705882 164.327494,19.6235294 164.100827,19.6235294 L164.100827,19.6235294 L162.211938,19.6235294 C161.909716,19.6235294 161.758605,19.3176471 161.909716,19.0882353 L161.909716,19.0882353 L168.860827,8.30588235 C169.011938,8.15294118 169.238605,8 169.465271,8 L169.465271,8 Z M116.95416,8 C117.180827,8 117.407494,8.22941176 117.407494,8.45882353 L117.407494,8.45882353 L117.407494,9.83529412 C117.407494,10.1411765 117.180827,10.2941176 116.878605,10.2941176 L116.878605,10.2941176 L110.531938,10.2941176 L110.531938,18.9352941 C110.531938,19.1647059 110.305271,19.3941176 110.078605,19.3941176 L110.078605,19.3941176 L108.718605,19.3941176 C108.491938,19.3941176 108.265271,19.1647059 108.265271,18.9352941 L108.265271,18.9352941 L108.265271,10.2941176 L101.918605,10.2941176 C101.691938,10.2941176 101.465271,10.0647059 101.465271,9.83529412 L101.465271,9.83529412 L101.465271,8.45882353 C101.465271,8.22941176 101.691938,8 101.918605,8 L101.918605,8 Z M74.4163824,10.0647059 L66.4830491,10.0647059 C65.5008269,10.0647059 64.6697158,10.9058824 64.6697158,11.9 L64.6697158,11.9 L64.6697158,15.5705882 C64.6697158,16.5647059 65.5008269,17.4058824 66.4830491,17.4058824 L66.4830491,17.4058824 L74.3408269,17.4058824 C75.3230491,17.4058824 76.1541602,16.5647059 76.1541602,15.5705882 L76.1541602,15.5705882 L76.2297158,15.5705882 L76.2297158,11.9 C76.2297158,10.9058824 75.3986046,10.0647059 74.4163824,10.0647059 L74.4163824,10.0647059 Z M94.1363824,10.2941176 L85.1452713,10.2941176 L85.1452713,12.8941176 L94.1363824,12.8941176 C94.891938,12.8941176 95.4208269,12.3588235 95.4208269,11.5941176 C95.4208269,10.8294118 94.8163824,10.2941176 94.1363824,10.2941176 L94.1363824,10.2941176 Z" id="Combined-Shape" fill="#FFFFFF"/>
            <g id="symbol">
                <polygon id="Path" fill="#0892B7" points="19.7735849 17.3297297 28.9811321 4.61621622 39.4716981 -1.0658141e-14 19.7735849 27.4702703 1.17239551e-13 -1.0658141e-14 10.5660377 4.61621622"/>
                <polygon id="Path" fill="#FFFFFF" points="19.7735849 11.5027027 24.5283019 6.43243243 19.7735849 8.4 14.9433962 6.43243243"/>
            </g>
        </g>
    </g>
</svg>